<svg id="calendario" xmlns="http://www.w3.org/2000/svg" width="81.013" height="81.013" viewBox="0 0 81.013 81.013">
  <g id="Grupo_55" data-name="Grupo 55">
    <g id="Grupo_54" data-name="Grupo 54">
      <path id="Caminho_581" data-name="Caminho 581" d="M71.519,6.329h-3.8V0H61.393V6.329H19.62V0H13.291V6.329h-3.8A9.5,9.5,0,0,0,0,15.823v55.7a9.5,9.5,0,0,0,9.494,9.494H71.519a9.5,9.5,0,0,0,9.494-9.494v-55.7A9.5,9.5,0,0,0,71.519,6.329Zm3.165,65.19a3.168,3.168,0,0,1-3.165,3.165H9.494a3.168,3.168,0,0,1-3.165-3.165V29.747H74.684Zm0-48.1H6.329V15.823a3.168,3.168,0,0,1,3.165-3.165h3.8v6.329H19.62V12.658H61.393v6.329h6.329V12.658h3.8a3.168,3.168,0,0,1,3.165,3.165Z" fill="#dedede"/>
    </g>
  </g>
  <g id="Grupo_57" data-name="Grupo 57" transform="translate(11.779 36.703)">
    <g id="Grupo_56" data-name="Grupo 56" transform="translate(0 0)">
      <rect id="Retângulo_15" data-name="Retângulo 15" width="6" height="6" transform="translate(0.234 0.31)" fill="#dedede"/>
    </g>
  </g>
  <g id="Grupo_59" data-name="Grupo 59" transform="translate(24.933 36.703)">
    <g id="Grupo_58" data-name="Grupo 58" transform="translate(0 0)">
      <rect id="Retângulo_16" data-name="Retângulo 16" width="6" height="6" transform="translate(0.08 0.31)" fill="#dedede"/>
    </g>
  </g>
  <g id="Grupo_61" data-name="Grupo 61" transform="translate(37.395 36.703)">
    <g id="Grupo_60" data-name="Grupo 60" transform="translate(0 0)">
      <rect id="Retângulo_17" data-name="Retângulo 17" width="7" height="6" transform="translate(-0.382 0.31)" fill="#dedede"/>
    </g>
  </g>
  <g id="Grupo_63" data-name="Grupo 63" transform="translate(49.858 36.703)">
    <g id="Grupo_62" data-name="Grupo 62" transform="translate(0 0)">
      <rect id="Retângulo_18" data-name="Retângulo 18" width="6" height="6" transform="translate(0.155 0.31)" fill="#dedede"/>
    </g>
  </g>
  <g id="Grupo_65" data-name="Grupo 65" transform="translate(62.32 36.703)">
    <g id="Grupo_64" data-name="Grupo 64" transform="translate(0 0)">
      <rect id="Retângulo_19" data-name="Retângulo 19" width="7" height="6" transform="translate(-0.307 0.31)" fill="#dedede"/>
    </g>
  </g>
  <g id="Grupo_67" data-name="Grupo 67" transform="translate(11.779 49.165)">
    <g id="Grupo_66" data-name="Grupo 66" transform="translate(0 0)">
      <rect id="Retângulo_20" data-name="Retângulo 20" width="6" height="6" transform="translate(0.234 -0.152)" fill="#dedede"/>
    </g>
  </g>
  <g id="Grupo_69" data-name="Grupo 69" transform="translate(24.933 49.165)">
    <g id="Grupo_68" data-name="Grupo 68" transform="translate(0 0)">
      <rect id="Retângulo_21" data-name="Retângulo 21" width="6" height="6" transform="translate(0.08 -0.152)" fill="#dedede"/>
    </g>
  </g>
  <g id="Grupo_71" data-name="Grupo 71" transform="translate(37.395 49.165)">
    <g id="Grupo_70" data-name="Grupo 70" transform="translate(0 0)">
      <rect id="Retângulo_22" data-name="Retângulo 22" width="7" height="6" transform="translate(-0.382 -0.152)" fill="#dedede"/>
    </g>
  </g>
  <g id="Grupo_73" data-name="Grupo 73" transform="translate(49.858 49.165)">
    <g id="Grupo_72" data-name="Grupo 72" transform="translate(0 0)">
      <rect id="Retângulo_23" data-name="Retângulo 23" width="6" height="6" transform="translate(0.155 -0.152)" fill="#dedede"/>
    </g>
  </g>
  <g id="Grupo_75" data-name="Grupo 75" transform="translate(11.779 61.627)">
    <g id="Grupo_74" data-name="Grupo 74" transform="translate(0 0)">
      <rect id="Retângulo_24" data-name="Retângulo 24" width="6" height="6" transform="translate(0.234 0.385)" fill="#dedede"/>
    </g>
  </g>
  <g id="Grupo_77" data-name="Grupo 77" transform="translate(24.933 61.627)">
    <g id="Grupo_76" data-name="Grupo 76" transform="translate(0 0)">
      <rect id="Retângulo_25" data-name="Retângulo 25" width="6" height="6" transform="translate(0.08 0.385)" fill="#dedede"/>
    </g>
  </g>
  <g id="Grupo_79" data-name="Grupo 79" transform="translate(37.395 61.627)">
    <g id="Grupo_78" data-name="Grupo 78" transform="translate(0 0)">
      <rect id="Retângulo_26" data-name="Retângulo 26" width="7" height="6" transform="translate(-0.382 0.385)" fill="#dedede"/>
    </g>
  </g>
  <g id="Grupo_81" data-name="Grupo 81" transform="translate(49.858 61.627)">
    <g id="Grupo_80" data-name="Grupo 80" transform="translate(0 0)">
      <rect id="Retângulo_27" data-name="Retângulo 27" width="6" height="6" transform="translate(0.155 0.385)" fill="#dedede"/>
    </g>
  </g>
  <g id="Grupo_83" data-name="Grupo 83" transform="translate(62.32 49.165)">
    <g id="Grupo_82" data-name="Grupo 82" transform="translate(0 0)">
      <rect id="Retângulo_28" data-name="Retângulo 28" width="7" height="6" transform="translate(-0.307 -0.152)" fill="#dedede"/>
    </g>
  </g>
</svg>
