<svg id="calendario-azul" xmlns="http://www.w3.org/2000/svg" width="30.705" height="30.705" viewBox="0 0 30.705 30.705">
  <g id="Grupo_55" data-name="Grupo 55">
    <g id="Grupo_54" data-name="Grupo 54">
      <path id="Caminho_581" data-name="Caminho 581" d="M27.107,2.4H25.668V0h-2.4V2.4H7.436V0h-2.4V2.4H3.6A3.6,3.6,0,0,0,0,6v21.11a3.6,3.6,0,0,0,3.6,3.6H27.107a3.6,3.6,0,0,0,3.6-3.6V6A3.6,3.6,0,0,0,27.107,2.4Zm1.2,24.708a1.2,1.2,0,0,1-1.2,1.2H3.6a1.2,1.2,0,0,1-1.2-1.2V11.275H28.306Zm0-18.231H2.4V6A1.2,1.2,0,0,1,3.6,4.8H5.038V7.2h2.4V4.8H23.269V7.2h2.4V4.8h1.439a1.2,1.2,0,0,1,1.2,1.2Z" fill="#004c66"/>
    </g>
  </g>
  <g id="Grupo_57" data-name="Grupo 57" transform="translate(4.606 13.817)">
    <g id="Grupo_56" data-name="Grupo 56" transform="translate(0 0)">
      <rect id="Retângulo_15" data-name="Retângulo 15" width="2" height="2" transform="translate(0.1 -0.112)" fill="#004c66"/>
    </g>
  </g>
  <g id="Grupo_59" data-name="Grupo 59" transform="translate(9.212 13.817)">
    <g id="Grupo_58" data-name="Grupo 58" transform="translate(0 0)">
      <rect id="Retângulo_16" data-name="Retângulo 16" width="2" height="2" transform="translate(0.493 -0.112)" fill="#004c66"/>
    </g>
  </g>
  <g id="Grupo_61" data-name="Grupo 61" transform="translate(13.817 13.817)">
    <g id="Grupo_60" data-name="Grupo 60" transform="translate(0 0)">
      <rect id="Retângulo_17" data-name="Retângulo 17" width="3" height="2" transform="translate(-0.112 -0.112)" fill="#004c66"/>
    </g>
  </g>
  <g id="Grupo_63" data-name="Grupo 63" transform="translate(19.191 13.817)">
    <g id="Grupo_62" data-name="Grupo 62" transform="translate(0 0)">
      <rect id="Retângulo_18" data-name="Retângulo 18" width="3" height="2" transform="translate(-0.485 -0.112)" fill="#004c66"/>
    </g>
  </g>
  <g id="Grupo_65" data-name="Grupo 65" transform="translate(23.796 13.817)">
    <g id="Grupo_64" data-name="Grupo 64" transform="translate(0 0)">
      <rect id="Retângulo_19" data-name="Retângulo 19" width="2" height="2" transform="translate(-0.092 -0.112)" fill="#004c66"/>
    </g>
  </g>
  <g id="Grupo_67" data-name="Grupo 67" transform="translate(4.606 18.423)">
    <g id="Grupo_66" data-name="Grupo 66" transform="translate(0 0)">
      <rect id="Retângulo_20" data-name="Retângulo 20" width="2" height="2" transform="translate(0.1 0.282)" fill="#004c66"/>
    </g>
  </g>
  <g id="Grupo_69" data-name="Grupo 69" transform="translate(9.212 18.423)">
    <g id="Grupo_68" data-name="Grupo 68" transform="translate(0 0)">
      <rect id="Retângulo_21" data-name="Retângulo 21" width="2" height="2" transform="translate(0.493 0.282)" fill="#004c66"/>
    </g>
  </g>
  <g id="Grupo_71" data-name="Grupo 71" transform="translate(13.817 18.423)">
    <g id="Grupo_70" data-name="Grupo 70" transform="translate(0 0)">
      <rect id="Retângulo_22" data-name="Retângulo 22" width="3" height="2" transform="translate(-0.112 0.282)" fill="#004c66"/>
    </g>
  </g>
  <g id="Grupo_73" data-name="Grupo 73" transform="translate(19.191 18.423)">
    <g id="Grupo_72" data-name="Grupo 72" transform="translate(0 0)">
      <rect id="Retângulo_23" data-name="Retângulo 23" width="3" height="2" transform="translate(-0.485 0.282)" fill="#004c66"/>
    </g>
  </g>
  <g id="Grupo_75" data-name="Grupo 75" transform="translate(4.606 23.029)">
    <g id="Grupo_74" data-name="Grupo 74" transform="translate(0 0)">
      <rect id="Retângulo_24" data-name="Retângulo 24" width="2" height="3" transform="translate(0.1 -0.324)" fill="#004c66"/>
    </g>
  </g>
  <g id="Grupo_77" data-name="Grupo 77" transform="translate(9.212 23.029)">
    <g id="Grupo_76" data-name="Grupo 76" transform="translate(0 0)">
      <rect id="Retângulo_25" data-name="Retângulo 25" width="2" height="3" transform="translate(0.493 -0.324)" fill="#004c66"/>
    </g>
  </g>
  <g id="Grupo_79" data-name="Grupo 79" transform="translate(13.817 23.029)">
    <g id="Grupo_78" data-name="Grupo 78" transform="translate(0 0)">
      <rect id="Retângulo_26" data-name="Retângulo 26" width="3" height="3" transform="translate(-0.112 -0.324)" fill="#004c66"/>
    </g>
  </g>
  <g id="Grupo_81" data-name="Grupo 81" transform="translate(19.191 23.029)">
    <g id="Grupo_80" data-name="Grupo 80" transform="translate(0 0)">
      <rect id="Retângulo_27" data-name="Retângulo 27" width="3" height="3" transform="translate(-0.485 -0.324)" fill="#004c66"/>
    </g>
  </g>
  <g id="Grupo_83" data-name="Grupo 83" transform="translate(23.796 18.423)">
    <g id="Grupo_82" data-name="Grupo 82" transform="translate(0 0)">
      <rect id="Retângulo_28" data-name="Retângulo 28" width="2" height="2" transform="translate(-0.092 0.282)" fill="#004c66"/>
    </g>
  </g>
</svg>
