<svg xmlns="http://www.w3.org/2000/svg" width="420.688" height="509.001" viewBox="0 0 420.688 509.001">
  <g id="certidoes" transform="translate(-44.157)">
    <path id="Caminho_526" data-name="Caminho 526" d="M464.844,55.928V476.712c0,17.841-14.094,32.289-31.456,32.289H121.451A31.344,31.344,0,0,1,93.43,491.379a32.721,32.721,0,0,1-3.435-14.666V472.32l.354-.489H335.408v-70.9a14.234,14.234,0,0,1,14.312-14.167h69.324V30.415a31.643,31.643,0,0,0-.739-6.776h15.083a30.666,30.666,0,0,1,4.393.312c15.28,2.2,27.063,15.666,27.063,31.977Z" fill="#c8beb9"/>
    <path id="Caminho_527" data-name="Caminho 527" d="M419.921,31.456V387.808H351.168a14.174,14.174,0,0,0-14.194,14.167v70.9H75.684a31.489,31.489,0,0,1-31.527-31.456V31.456A31.488,31.488,0,0,1,75.684,0h312.7a31.551,31.551,0,0,1,30.8,24.68,31.9,31.9,0,0,1,.733,6.776Z" fill="#f9f3f1"/>
    <path id="Caminho_528" data-name="Caminho 528" d="M338.981,286.966a7.5,7.5,0,0,1-7.5-7.5V257.625a7.5,7.5,0,0,1,15,0v21.841A7.5,7.5,0,0,1,338.981,286.966Z" fill="#a59da7"/>
    <path id="Caminho_529" data-name="Caminho 529" d="M355.43,62.39V248.02a13.606,13.606,0,0,1-13.61,13.61h-5.67a13.6,13.6,0,0,1-13.6-13.61V62.39a13.6,13.6,0,0,1,13.6-13.6h5.67A13.6,13.6,0,0,1,355.43,62.39Z" fill="#8ac9fe"/>
    <path id="Caminho_530" data-name="Caminho 530" d="M322.545,141.562h32.882v82.46H322.545Z" fill="#fe646f"/>
    <path id="Caminho_531" data-name="Caminho 531" d="M338.179,473.021a1.559,1.559,0,0,1-2.679-1.093V400.862a15.416,15.416,0,0,1,6.259-12.47,14.676,14.676,0,0,1,8.753-2.892h68.425a1.571,1.571,0,0,1,1.119,2.663Z" fill="#e1d3ce"/>
    <path id="Caminho_532" data-name="Caminho 532" d="M187.953,166.317h63.418a11.4,11.4,0,0,1,11.236,13.2c-6.438,41.583-42.762,73.845-86.03,73.845-47.75,0-87.043-39.293-87.043-87.043,0-43.268,32.262-79.592,73.845-86.03a11.405,11.405,0,0,1,13.2,11.236v63.418a11.376,11.376,0,0,0,11.376,11.376Z" fill="#8ac9fe"/>
    <path id="Caminho_533" data-name="Caminho 533" d="M206.537,126.023V61.418a11.4,11.4,0,0,1,13.137-11.246A88.21,88.21,0,0,1,294.749,137.4H217.913a11.376,11.376,0,0,1-11.376-11.376Z" fill="#ffe177"/>
    <path id="Caminho_534" data-name="Caminho 534" d="M106.576,472.873H75.686a31.488,31.488,0,0,1-31.528-31.456V31.458A31.488,31.488,0,0,1,75.686,0h30.89A31.488,31.488,0,0,0,75.048,31.458V441.417A31.488,31.488,0,0,0,106.576,472.873Z" fill="#e1d3ce"/>
    <path id="Caminho_535" data-name="Caminho 535" d="M387.5,106.47V150a7.5,7.5,0,0,1-15,0V106.47a16.883,16.883,0,0,0-16.88-16.89,1.21,1.21,0,0,0-.19.01V74.58h.19a31.889,31.889,0,0,1,31.88,31.89Z" fill="#8ac9fe"/>
    <g id="Grupo_33" data-name="Grupo 33">
      <path id="Caminho_536" data-name="Caminho 536" d="M338.06,324.909H96.955a7.5,7.5,0,0,1,0-15h241.1a7.5,7.5,0,0,1,0,15Z" fill="#a59da7"/>
      <path id="Caminho_537" data-name="Caminho 537" d="M338.06,364.184H96.955a7.5,7.5,0,0,1,0-15h241.1a7.5,7.5,0,0,1,0,15Z" fill="#a59da7"/>
      <path id="Caminho_538" data-name="Caminho 538" d="M265.8,403.459H94.574a7.5,7.5,0,0,1,0-15H265.8a7.5,7.5,0,0,1,0,15Z" fill="#a59da7"/>
    </g>
  </g>
</svg>
