<svg xmlns="http://www.w3.org/2000/svg" width="44.272" height="44.33" viewBox="0 0 44.272 44.33">
  <g id="consultoria" transform="translate(-0.321)">
    <path id="Caminho_25" data-name="Caminho 25" d="M240.664,390.336a.672.672,0,0,1-.672-.672v-2.773a.672.672,0,0,1,1.343,0v2.773A.672.672,0,0,1,240.664,390.336Z" transform="translate(-218.207 -351.631)" fill="#a59da7"/>
    <path id="Caminho_26" data-name="Caminho 26" d="M59.96,66.7H22.638a1.622,1.622,0,0,1-1.622-1.622V34.537H61.582V65.083A1.622,1.622,0,0,1,59.96,66.7Z" transform="translate(-18.842 -31.444)" fill="#f9f3f1"/>
    <path id="Caminho_27" data-name="Caminho 27" d="M25.323,66.7H22.636a1.622,1.622,0,0,1-1.622-1.622V34.532H23.7V65.078A1.622,1.622,0,0,0,25.323,66.7Z" transform="translate(-18.84 -31.439)" fill="#e1d3ce"/>
    <path id="Caminho_28" data-name="Caminho 28" d="M43.656,5.086H1.258A.937.937,0,0,1,.321,4.15V.937A.937.937,0,0,1,1.258,0h42.4a.937.937,0,0,1,.937.937V4.15A.937.937,0,0,1,43.656,5.086Z" transform="translate(0 0)" fill="#ffe177"/>
    <ellipse id="Elipse_4" data-name="Elipse 4" cx="3.144" cy="3.148" rx="3.144" ry="3.148" transform="translate(19.313 38.033)" fill="#ffe177"/>
    <path id="Caminho_29" data-name="Caminho 29" d="M82.367,167.228l5.222.723a.8.8,0,0,1,.66,1.01,6.7,6.7,0,1,1-8.552-8.189.8.8,0,0,1,1.036.616l.956,5.192A.8.8,0,0,0,82.367,167.228Z" transform="translate(-68.074 -146.338)" fill="#8ac9fe"/>
    <path id="Caminho_30" data-name="Caminho 30" d="M166.085,129.3l-.88-5.228a.8.8,0,0,1,.755-.932q.108,0,.217,0a6.74,6.74,0,0,1,6.7,6.713q0,.171-.009.343a.8.8,0,0,1-.949.748l-5.2-.987a.8.8,0,0,1-.639-.653Z" transform="translate(-150.108 -112.11)" fill="#fe646f"/>
    <path id="Caminho_31" data-name="Caminho 31" d="M3.947,5.088H1.261a.936.936,0,0,1-.937-.937V.939A.936.936,0,0,1,1.261,0H3.947a.936.936,0,0,0-.937.937V4.151A.936.936,0,0,0,3.947,5.088Z" transform="translate(-0.003 -0.002)" fill="#ffc344"/>
    <g id="Grupo_3" data-name="Grupo 3" transform="translate(23.374 9.211)">
      <path id="Caminho_32" data-name="Caminho 32" d="M310.222,216.116H298.935a.672.672,0,0,1,0-1.343h11.287a.672.672,0,0,1,0,1.343Z" transform="translate(-294.633 -204.749)" fill="#a59da7"/>
      <path id="Caminho_33" data-name="Caminho 33" d="M306.959,246.176h-8.023a.672.672,0,0,1,0-1.343h8.023a.672.672,0,1,1,0,1.343Z" transform="translate(-294.634 -232.117)" fill="#a59da7"/>
      <path id="Caminho_34" data-name="Caminho 34" d="M267.734,108.466a.672.672,0,0,1-.672-.672v-3.605H260.4l-1.545,1.439a.672.672,0,0,1-.915-.983l1.739-1.619a.672.672,0,0,1,.458-.18h7.6a.672.672,0,0,1,.672.672v4.277A.672.672,0,0,1,267.734,108.466Z" transform="translate(-257.728 -102.846)" fill="#a59da7"/>
      <path id="Caminho_35" data-name="Caminho 35" d="M310.222,186.056H298.935a.672.672,0,0,1,0-1.343h11.287a.672.672,0,0,1,0,1.343Z" transform="translate(-294.633 -177.381)" fill="#a59da7"/>
    </g>
  </g>
</svg>
