<svg xmlns="http://www.w3.org/2000/svg" width="48.353" height="45.869" viewBox="0 0 48.353 45.869">
  <g id="contact" transform="translate(0 -13.147)">
    <path id="Caminho_591" data-name="Caminho 591" d="M153.556,22.169V40.214a1.289,1.289,0,0,1-1.288,1.289h-34.8a1.289,1.289,0,0,1-1.289-1.289V14.436a1.289,1.289,0,0,1,1.289-1.289h34.8a1.289,1.289,0,0,1,1.288,1.289v7.733Z" transform="translate(-105.203 0)" fill="#ff5364"/>
    <path id="Caminho_592" data-name="Caminho 592" d="M156.32,13.591,139.2,28.214a1.927,1.927,0,0,1-2.487,0L119.587,13.591a1.275,1.275,0,0,1,.967-.444h34.8A1.276,1.276,0,0,1,156.32,13.591Z" transform="translate(-108.289 0)" fill="#fb7b76"/>
    <path id="Caminho_593" data-name="Caminho 593" d="M157.455,163.431a1.271,1.271,0,0,1-.834.309h-34.8a1.274,1.274,0,0,1-.834-.309l14.277-15.292,2.714,2.313a1.927,1.927,0,0,0,2.487,0l2.707-2.313Z" transform="translate(-109.56 -122.239)" fill="#df4d60"/>
    <path id="Caminho_594" data-name="Caminho 594" d="M10.552,105.833l2.393,3.59a1.64,1.64,0,0,1-.358,2.205L9.64,113.921a1.634,1.634,0,0,0-.432,2.085c.865,1.553,1.683,3.388,5.744,7.449s5.9,4.878,7.45,5.743a1.632,1.632,0,0,0,2.085-.432l2.292-2.946a1.641,1.641,0,0,1,2.206-.358l3.7,2.469,4.17,2.778a1.64,1.64,0,0,1,.5,2.209l-1.975,3.291a4.016,4.016,0,0,1-2.363,1.826c-3.282.9-10.52,1.084-22.122-10.52S-.529,108.675.372,105.394A4.016,4.016,0,0,1,2.2,103.03l3.289-1.975a1.641,1.641,0,0,1,2.209.5Z" transform="translate(0 -79.393)" fill="#4fba6f"/>
  </g>
</svg>
