<svg id="documentos" xmlns="http://www.w3.org/2000/svg" width="83" height="83" viewBox="0 0 83 83">
  <g id="Grupo_43" data-name="Grupo 43" transform="translate(29.18 14.752)">
    <g id="Grupo_42" data-name="Grupo 42">
      <path id="Caminho_574" data-name="Caminho 574" d="M201.885,91H182.432a2.432,2.432,0,0,0,0,4.863h19.453a2.432,2.432,0,1,0,0-4.863Z" transform="translate(-180 -91)" fill="#dedede"/>
    </g>
  </g>
  <g id="Grupo_45" data-name="Grupo 45" transform="translate(29.18 24.479)">
    <g id="Grupo_44" data-name="Grupo 44">
      <path id="Caminho_575" data-name="Caminho 575" d="M201.885,151H182.432a2.432,2.432,0,0,0,0,4.863h19.453a2.432,2.432,0,1,0,0-4.863Z" transform="translate(-180 -151)" fill="#dedede"/>
    </g>
  </g>
  <g id="Grupo_47" data-name="Grupo 47" transform="translate(9.727 34.205)">
    <g id="Grupo_46" data-name="Grupo 46">
      <path id="Caminho_576" data-name="Caminho 576" d="M101.338,211H62.432a2.432,2.432,0,0,0,0,4.863h38.906a2.432,2.432,0,0,0,0-4.863Z" transform="translate(-60 -211)" fill="#dedede"/>
    </g>
  </g>
  <g id="Grupo_49" data-name="Grupo 49" transform="translate(9.727 43.932)">
    <g id="Grupo_48" data-name="Grupo 48">
      <path id="Caminho_577" data-name="Caminho 577" d="M92.523,271H62.432a2.432,2.432,0,0,0,0,4.863H92.523a2.432,2.432,0,0,0,0-4.863Z" transform="translate(-60 -271)" fill="#dedede"/>
    </g>
  </g>
  <g id="Grupo_51" data-name="Grupo 51" transform="translate(0)">
    <g id="Grupo_50" data-name="Grupo 50">
      <path id="Caminho_578" data-name="Caminho 578" d="M63.385,43.932V7.295A7.428,7.428,0,0,0,55.928,0H21.884a2.455,2.455,0,0,0-1.726.719L.705,20.335A2.454,2.454,0,0,0,0,22.047V75.705A7.3,7.3,0,0,0,7.295,83h56.09a19.534,19.534,0,1,0,0-39.068ZM19.453,8.337V19.615H8.268ZM7.295,78.137a2.434,2.434,0,0,1-2.432-2.432V24.479H21.885a2.432,2.432,0,0,0,2.432-2.432V4.863H55.928a2.583,2.583,0,0,1,2.594,2.432V44.537A19.675,19.675,0,0,0,46.4,53.658H12.158a2.432,2.432,0,0,0,0,4.863H44.39a19.274,19.274,0,0,0-.621,4.863H12.158a2.432,2.432,0,0,0,0,4.863H44.386a19.7,19.7,0,0,0,6.141,9.889Zm56.09,0A14.95,14.95,0,0,1,48.633,63.385a14.753,14.753,0,0,1,29.5,0A14.95,14.95,0,0,1,63.385,78.137Z" transform="translate(0)" fill="#dedede"/>
    </g>
  </g>
  <g id="Grupo_53" data-name="Grupo 53" transform="translate(53.496 58.522)">
    <g id="Grupo_52" data-name="Grupo 52">
      <path id="Caminho_579" data-name="Caminho 579" d="M349.079,361.727a2.432,2.432,0,0,0-3.439-.029l-8.2,8.063-3.321-3.213a2.432,2.432,0,1,0-3.382,3.495l5.025,4.863a2.432,2.432,0,0,0,3.4-.014l9.889-9.727A2.432,2.432,0,0,0,349.079,361.727Z" transform="translate(-330 -361)" fill="#dedede"/>
    </g>
  </g>
</svg>
