<svg id="email" xmlns="http://www.w3.org/2000/svg" width="40.551" height="40.551" viewBox="0 0 40.551 40.551">
  <path id="Caminho_585" data-name="Caminho 585" d="M149.986,144H133.625l8.18,7.012Zm0,0" transform="translate(-121.53 -130.966)" fill="#fff"/>
  <path id="Caminho_586" data-name="Caminho 586" d="M129.414,161.23a.723.723,0,0,1-.471-.175L120,153.391v13.632h18.827V153.391l-8.942,7.665a.723.723,0,0,1-.471.175Zm0,0" transform="translate(-109.138 -139.506)" fill="#fff"/>
  <path id="Caminho_587" data-name="Caminho 587" d="M20.275,0A20.275,20.275,0,1,0,40.551,20.275,20.275,20.275,0,0,0,20.275,0ZM31.137,28.241a.724.724,0,0,1-.724.724H10.138a.724.724,0,0,1-.724-.724V12.31a.724.724,0,0,1,.724-.724H30.413a.724.724,0,0,1,.724.724Zm0,0" fill="#fff"/>
</svg>
