<svg id="Layer_1" height="512" viewBox="0 0 512 512" width="512" xmlns="http://www.w3.org/2000/svg" data-name="Layer 1"><path d="m331.52 415.63v35.72a44.649 44.649 0 0 1 -44.65 44.65h-178.6a44.649 44.649 0 0 1 -44.65-44.65v-35.72z" fill="#6d7486"/><path d="m329.92 82.98h-266.3v332.65h267.9v-332.65z" fill="#a0eaea"/><path d="m331.52 60.65v22.33h-267.9v-22.33a44.649 44.649 0 0 1 44.65-44.65h178.6a44.649 44.649 0 0 1 44.65 44.65z" fill="#6d7486"/><path d="m445.15 278.42-66.79-107.26a21.2 21.2 0 0 0 -36 0l-66.79 107.26a21.214 21.214 0 0 0 18.01 32.42h133.56a21.214 21.214 0 0 0 18.01-32.42z" fill="#e75163"/><path d="m197.57 439.07a16.745 16.745 0 1 1 -16.74 16.74 16.74 16.74 0 0 1 16.74-16.74z" fill="#4a5160"/><path d="m305.57 278.42 66.79-107.26a21.573 21.573 0 0 1 3-3.787 21.214 21.214 0 0 0 -33 3.787l-66.79 107.26a21.214 21.214 0 0 0 18.01 32.42h30a21.214 21.214 0 0 1 -18.01-32.42z" fill="#c64a5f"/><path d="m93.62 451.35v-35.72h-30v35.72a44.649 44.649 0 0 0 44.65 44.65h30a44.649 44.649 0 0 1 -44.65-44.65z" fill="#b0b5ca"/><path d="m63.62 82.98h30v332.65h-30z" fill="#c5fffd"/><path d="m93.62 60.65a44.649 44.649 0 0 1 44.65-44.65h-30a44.649 44.649 0 0 0 -44.65 44.65v22.33h30z" fill="#b0b5ca"/><g fill="#8dcecc"><path d="m128.36 145.349h-37.506a6 6 0 1 1 0-12h37.506a6 6 0 0 1 0 12z"/><path d="m183.281 145.349h-24.111a6 6 0 0 1 0-12h24.111a6 6 0 0 1 0 12z"/><path d="m264.1 145.349h-41.972a6 6 0 0 1 0-12h41.972a6 6 0 0 1 0 12z"/><path d="m155.151 207.86h-64.3a6 6 0 1 1 0-12h64.3a6 6 0 0 1 0 12z"/><path d="m207.839 207.86h-21.879a6 6 0 0 1 0-12h21.879a6 6 0 0 1 0 12z"/><path d="m106.928 270.372h-16.074a6 6 0 1 1 0-12h16.074a6 6 0 0 1 0 12z"/><path d="m215.291 270.372h-77.554a6 6 0 0 1 0-12h77.554a6 6 0 0 1 0 12z"/><path d="m122.742 332.884h-31.888a6 6 0 1 1 0-12h31.888a6 6 0 0 1 0 12z"/><path d="m274.5 332.884h-22.234a6 6 0 1 1 0-12h22.234a6 6 0 0 1 0 12z"/><path d="m220.514 332.884h-66.963a6 6 0 0 1 0-12h66.963a6 6 0 0 1 0 12z"/><path d="m131.579 379.768h-40.725a6 6 0 1 1 0-12h40.725a6 6 0 0 1 0 12z"/><path d="m274.5 379.768h-46.417a6 6 0 0 1 0-12h46.417a6 6 0 0 1 0 12z"/><path d="m196.363 379.768h-33.975a6 6 0 1 1 0-12h33.975a6 6 0 0 1 0 12z"/></g><path d="m360.36 263.587a6 6 0 0 1 -6-6v-48.476a6 6 0 0 1 12 0v48.476a6 6 0 0 1 -6 6z" fill="#eadf53"/><path d="m360.36 285.193a7.6 7.6 0 1 1 7.6-7.6 7.609 7.609 0 0 1 -7.6 7.6z" fill="#eadf53"/></svg>