<svg id="Layer_1" height="512" viewBox="0 0 512 512" width="512" xmlns="http://www.w3.org/2000/svg" data-name="Layer 1"><path d="m433.61 360.53h-422.14v46.8a18.718 18.718 0 0 0 18.72 18.72h386.53a18.718 18.718 0 0 0 18.72-18.72v-46.8z" fill="#d4e1f4"/><path d="m363.95 102.19h-333.76a18.718 18.718 0 0 0 -18.72 18.72v239.62h423.97v-219.86z" fill="#80aaff"/><circle cx="220.67" cy="393.29" fill="#6d7486" r="9.36"/><path d="m290.87 472.92a28.065 28.065 0 0 1 28.08 28.08h-196.56a28.065 28.065 0 0 1 28.08-28.08 18.71 18.71 0 0 0 18.72-18.72v-28.15h102.96v28.15a18.718 18.718 0 0 0 18.72 18.72z" fill="#bac8d8"/><path d="m343.95 102.19 50.56-81.19a21.2 21.2 0 0 1 36 0l66.78 107.26a21.2 21.2 0 0 1 -18 32.41h-133.57a21.2 21.2 0 0 1 -18-32.41z" fill="#e75163"/><path d="m357.72 128.26 16.23-26.07 50.56-81.19a21.573 21.573 0 0 1 3-3.787 21.214 21.214 0 0 0 -33 3.787l-50.56 81.19-16.23 26.07a21.2 21.2 0 0 0 18 32.41h30a21.2 21.2 0 0 1 -18-32.41z" fill="#c64a5f"/><path d="m41.47 407.33v-46.8h-30v46.8a18.718 18.718 0 0 0 18.72 18.72h30a18.718 18.718 0 0 1 -18.72-18.72z" fill="#e6f1ff"/><path d="m41.47 120.91a18.718 18.718 0 0 1 18.72-18.72h-30a18.718 18.718 0 0 0 -18.72 18.72v239.62h30z" fill="#b6d2ff"/><path d="m291.806 478.92h-44.853a6 6 0 0 1 0-12h44.853a6 6 0 0 1 0 12z" fill="#b0b5ca"/><path d="m223.668 478.92h-20a6 6 0 1 1 0-12h20a6 6 0 0 1 0 12z" fill="#b0b5ca"/><path d="m412.508 113.424a6 6 0 0 1 -6-6v-48.476a6 6 0 1 1 12 0v48.476a6 6 0 0 1 -6 6z" fill="#eadf53"/><path d="m412.508 135.03a7.6 7.6 0 1 1 7.6-7.6 7.608 7.608 0 0 1 -7.6 7.6z" fill="#eadf53"/><g fill="#f4f8fc"><path d="m46.3 148.333a6 6 0 0 1 -6-6v-6.295a6 6 0 0 1 12 0v6.295a6 6 0 0 1 -6 6z"/><path d="m46.3 234.333a6 6 0 0 1 -6-6v-63a6 6 0 0 1 12 0v63a6 6 0 0 1 -6 6z"/></g></svg>