<svg id="lupa" xmlns="http://www.w3.org/2000/svg" width="32.361" height="32.361" viewBox="0 0 32.361 32.361">
  <path id="XMLID_18_" d="M61.867,115.4a3.927,3.927,0,0,1-3.923-3.923,1.471,1.471,0,1,0-2.942,0,6.873,6.873,0,0,0,6.865,6.865,1.471,1.471,0,0,0,0-2.942Z" transform="translate(-49.608 -99.218)"/>
  <path id="XMLID_19_" d="M31.931,29.85,21.9,19.821a12.271,12.271,0,1,0-2.08,2.08l10.03,10.03a1.471,1.471,0,0,0,2.08-2.08ZM2.942,12.259a9.317,9.317,0,1,1,9.317,9.317A9.327,9.327,0,0,1,2.942,12.259Z"/>
</svg>
