<svg xmlns="http://www.w3.org/2000/svg" width="30.436" height="21.608" viewBox="0 0 30.436 21.608">
  <g id="menu-bars" transform="translate(0 -90)">
    <path id="XMLID_237_" d="M1.383,92.767h27.67a1.383,1.383,0,0,0,0-2.767H1.383a1.383,1.383,0,0,0,0,2.767Z"/>
    <path id="XMLID_238_" d="M29.053,150H1.383a1.383,1.383,0,1,0,0,2.767h27.67a1.383,1.383,0,1,0,0-2.767Z" transform="translate(0 -50.58)"/>
    <path id="XMLID_239_" d="M29.053,210H1.383a1.383,1.383,0,0,0,0,2.767h27.67a1.383,1.383,0,0,0,0-2.767Z" transform="translate(0 -101.159)"/>
  </g>
</svg>
