<svg xmlns="http://www.w3.org/2000/svg" width="40.551" height="40.551" viewBox="0 0 40.551 40.551">
  <g id="phone" transform="translate(0 0)">
    <g id="Grupo_86" data-name="Grupo 86" transform="translate(0 0)">
      <path id="Caminho_588" data-name="Caminho 588" d="M34.61,5.936A20.275,20.275,0,1,0,40.55,20.271,20.275,20.275,0,0,0,34.61,5.936Zm-3.9,22.307,0,0v-.007l-1.027,1.02a5.407,5.407,0,0,1-5.1,1.46,17.965,17.965,0,0,1-5.217-2.338,24.107,24.107,0,0,1-4.116-3.318,24.292,24.292,0,0,1-3.075-3.731,18.921,18.921,0,0,1-2.311-4.677,5.407,5.407,0,0,1,1.352-5.522l1.2-1.2a.858.858,0,0,1,1.214,0l0,0,3.8,3.8a.858.858,0,0,1,0,1.214l0,0-2.23,2.23A1.818,1.818,0,0,0,15,19.541a26.083,26.083,0,0,0,2.67,3.116,25.924,25.924,0,0,0,3.514,2.953,1.831,1.831,0,0,0,2.338-.2l2.156-2.19a.858.858,0,0,1,1.214,0l0,0L30.7,27.029A.858.858,0,0,1,30.706,28.243Z" transform="translate(0 0)" fill="#fff"/>
    </g>
  </g>
</svg>
