<svg xmlns="http://www.w3.org/2000/svg" width="32.344" height="46" viewBox="0 0 32.344 46">
  <g id="pointer" transform="translate(-76)">
    <path id="Caminho_582" data-name="Caminho 582" d="M92.172,0A16.185,16.185,0,0,0,76,16.172a15.947,15.947,0,0,0,2.426,8.49l12.65,20.7a1.277,1.277,0,0,0,.917.62,1.342,1.342,0,0,0,1.375-.647l12.686-20.89a15.949,15.949,0,0,0,2.291-8.275A16.185,16.185,0,0,0,92.172,0Zm0,24.258a8.086,8.086,0,1,1,8.086-8.086A8.075,8.075,0,0,1,92.172,24.258Z" fill="#fd003a"/>
    <path id="Caminho_583" data-name="Caminho 583" d="M256,0V8.086a8.086,8.086,0,0,1,0,16.172V46a1.334,1.334,0,0,0,1.195-.663l12.686-20.89a15.949,15.949,0,0,0,2.291-8.275A16.185,16.185,0,0,0,256,0Z" transform="translate(-163.828)" fill="#e50027"/>
  </g>
</svg>
