<svg xmlns="http://www.w3.org/2000/svg" width="39.976" height="42.094" viewBox="0 0 39.976 42.094">
  <g id="services" transform="translate(-12.717)">
    <path id="Caminho_389" data-name="Caminho 389" d="M336.095,28.661a.624.624,0,0,1-.624-.624V21.053a.482.482,0,0,0-.486-.476h-1.752a.624.624,0,1,1,0-1.249h1.752a1.732,1.732,0,0,1,1.734,1.725v6.984A.624.624,0,0,1,336.095,28.661Z" transform="translate(-293.262 -17.719)" fill="#7a6d79"/>
    <path id="Caminho_390" data-name="Caminho 390" d="M120.779,28.661a.624.624,0,0,1-.624-.624V21.053a1.732,1.732,0,0,1,1.734-1.725h1.666a.624.624,0,1,1,0,1.249h-1.666a.482.482,0,0,0-.486.476v6.984A.624.624,0,0,1,120.779,28.661Z" transform="translate(-98.494 -17.719)" fill="#7a6d79"/>
    <path id="Caminho_391" data-name="Caminho 391" d="M66.106,330.967v8.294a3.489,3.489,0,0,1-3.5,3.474H32.312a3.489,3.489,0,0,1-3.5-3.474v-8.294l5.982-2.879,26.908-.146Z" transform="translate(-14.751 -300.642)" fill="#aa6a51"/>
    <path id="Caminho_392" data-name="Caminho 392" d="M34.888,376.053H32.311a3.489,3.489,0,0,1-3.5-3.474v-8.294h2.577v8.294A3.489,3.489,0,0,0,34.888,376.053Z" transform="translate(-14.751 -333.959)" fill="#935b44"/>
    <path id="Caminho_393" data-name="Caminho 393" d="M36.848,141.268H49.191a3.489,3.489,0,0,0,3.5-3.475V123.682a3.489,3.489,0,0,0-3.5-3.474H16.223a3.489,3.489,0,0,0-3.5,3.474v14.111a3.489,3.489,0,0,0,3.5,3.475H27.507" transform="translate(-0.002 -110.201)" fill="#bc7c63"/>
    <path id="Caminho_394" data-name="Caminho 394" d="M199.7,339.15v3.243a1.179,1.179,0,0,1-1.18,1.18h-7.007a1.218,1.218,0,0,1-1.155-1.217v-3.167a1.217,1.217,0,0,1,1.217-1.217h6.944A1.179,1.179,0,0,1,199.7,339.15Z" transform="translate(-162.854 -309.836)" fill="#ffe177"/>
    <path id="Caminho_395" data-name="Caminho 395" d="M173.9.692V3.406a.692.692,0,0,1-.692.692H159.321a.692.692,0,0,1-.692-.692V.692A.692.692,0,0,1,159.321,0h13.889a.692.692,0,0,1,.692.692Z" transform="translate(-133.766)" fill="#7a5341"/>
    <path id="Caminho_396" data-name="Caminho 396" d="M18.8,141.268H16.221a3.489,3.489,0,0,1-3.5-3.474V123.682a3.489,3.489,0,0,1,3.5-3.474H18.8a3.489,3.489,0,0,0-3.5,3.474v14.111A3.489,3.489,0,0,0,18.8,141.268Z" transform="translate(0 -110.201)" fill="#aa6a51"/>
    <path id="Caminho_397" data-name="Caminho 397" d="M161.837,4.1h-2.517a.692.692,0,0,1-.692-.692V.692A.692.692,0,0,1,159.321,0h2.517a.713.713,0,0,0-.713.714v2.67A.713.713,0,0,0,161.837,4.1Z" transform="translate(-133.766)" fill="#704c3b"/>
    <path id="Caminho_398" data-name="Caminho 398" d="M194.123,343.572h-2.61a1.218,1.218,0,0,1-1.155-1.217v-3.168a1.217,1.217,0,0,1,1.217-1.217h2.578a1.218,1.218,0,0,0-1.218,1.217v3.168A1.218,1.218,0,0,0,194.123,343.572Z" transform="translate(-162.854 -309.836)" fill="#ffd064"/>
  </g>
</svg>
