<svg xmlns="http://www.w3.org/2000/svg" width="512" height="512" viewBox="0 0 512 512">
  <path id="twitter" d="M256,0C114.637,0,0,114.637,0,256S114.637,512,256,512,512,397.363,512,256,397.363,0,256,0Zm33.027,400.566c-63,1.086-86.859-44.875-86.859-77.227v-94.48H172.9V191.507c43.875-15.82,54.422-55.391,56.9-77.934a2.285,2.285,0,0,1,2.086-2.16H274.23v73.664h57.875v43.785H274.031v90.02c.188,12.238,4.68,29.121,27.832,28.5,7.668-.191,17.949-2.422,23.328-4.988l13.906,41.23c-5.211,7.684-28.816,16.578-50.07,16.941Zm0,0" fill="#fff"/>
</svg>
