<svg id="whatsapp" xmlns="http://www.w3.org/2000/svg" width="40.551" height="40.551" viewBox="0 0 40.551 40.551">
  <path id="Caminho_589" data-name="Caminho 589" d="M20.275,0A20.275,20.275,0,1,0,40.551,20.275,20.278,20.278,0,0,0,20.275,0Zm.43,32.08h0A12.13,12.13,0,0,1,14.9,30.6L8.468,32.291,10.19,26A12.136,12.136,0,1,1,20.705,32.08Zm0,0" fill="#fff"/>
  <path id="Caminho_590" data-name="Caminho 590" d="M144.162,124.469a10.088,10.088,0,0,0-8.548,15.448l.24.381-1.019,3.721,3.817-1,.368.218a10.07,10.07,0,0,0,5.134,1.406h0a10.087,10.087,0,0,0,0-20.173Zm5.933,14.417a3.124,3.124,0,0,1-2.047,1.441,4.161,4.161,0,0,1-1.91-.12,17.512,17.512,0,0,1-1.729-.639,13.515,13.515,0,0,1-5.18-4.577,5.9,5.9,0,0,1-1.238-3.136,3.4,3.4,0,0,1,1.061-2.529,1.115,1.115,0,0,1,.809-.379c.2,0,.4,0,.581.011s.436-.071.682.52c.253.607.859,2.1.935,2.25a.559.559,0,0,1,.025.531,8.641,8.641,0,0,1-.758,1.037c-.135.167-.31.315-.133.619a9.141,9.141,0,0,0,1.687,2.1,8.289,8.289,0,0,0,2.439,1.5c.3.152.48.126.657-.076s.758-.885.96-1.189.4-.253.682-.152,1.769.834,2.072.986.505.228.581.354a2.528,2.528,0,0,1-.177,1.441Zm0,0" transform="translate(-123.452 -114.611)" fill="#fff"/>
</svg>
